<svg xmlns="http://www.w3.org/2000/svg" version="1.1" xmlns:xlink="http://www.w3.org/1999/xlink" xmlns:svgjs="http://svgjs.com/svgjs" width="48" height="48"><svg width="48" height="48" viewBox="0 0 12.7 12.7" version="1.1" id="SvgjsSvg1028" inkscape:version="1.2.1 (9c6d41e410, 2022-07-14, custom)" sodipodi:docname="Songtech Logo V2.svg" xmlns:inkscape="http://www.inkscape.org/namespaces/inkscape" xmlns:sodipodi="http://sodipodi.sourceforge.net/DTD/sodipodi-0.dtd" xmlns:xlink="http://www.w3.org/1999/xlink" xmlns="http://www.w3.org/2000/svg" xmlns:svg="http://www.w3.org/2000/svg">
  <sodipodi:namedview id="SvgjsSodipodi:namedview1027" pagecolor="#ffffff" bordercolor="#666666" borderopacity="1.0" inkscape:pageshadow="2" inkscape:pageopacity="0" inkscape:pagecheckerboard="true" inkscape:document-units="px" showgrid="false" units="px" width="512px" inkscape:zoom="14.481547" inkscape:cx="34.561224" inkscape:cy="25.480703" inkscape:window-width="1920" inkscape:window-height="1007" inkscape:window-x="0" inkscape:window-y="0" inkscape:window-maximized="1" inkscape:current-layer="g103215" inkscape:snap-bbox="true" inkscape:snap-bbox-midpoints="true" inkscape:snap-bbox-edge-midpoints="true" inkscape:bbox-nodes="true" inkscape:showpageshadow="2" inkscape:deskcolor="#d1d1d1"></sodipodi:namedview>
  <defs id="SvgjsDefs1026">
    <linearGradient inkscape:collect="always" id="SvgjsLinearGradient1025">
      <stop style="stop-color:#2fd8d8;stop-opacity:1;" offset="0" id="SvgjsStop1024"></stop>
      <stop style="stop-color:#116059;stop-opacity:1;" offset="1" id="SvgjsStop1023"></stop>
    </linearGradient>
    <mask id="SvgjsMask1022">
      <g transform="translate(24.75,-38.35)" id="SvgjsG1021">
        <g id="SvgjsG1020">
          <g transform="translate(-24.75,38.35)" id="SvgjsG1019">
            <rect style="opacity:1;fill:#ffffff;fill-rule:nonzero;stroke:none;stroke-width:1;stroke-linecap:butt;stroke-linejoin:miter;stroke-miterlimit:4;stroke-dasharray:none;stroke-dashoffset:0" x="-75.5" y="-75.5" rx="0" ry="0" width="151" height="151" id="SvgjsRect1018"></rect>
          </g>
          <g transform="translate(3.25,-51.85)" id="SvgjsG1017">
            <path style="opacity:1;fill:none;fill-rule:nonzero;stroke:#000000;stroke-width:10;stroke-linecap:round;stroke-linejoin:round;stroke-miterlimit:10;stroke-dasharray:none;stroke-dashoffset:0" transform="translate(-333.5,-125.3)" d="m 400.01,149.8 q -0.01,0 -1.01,0 -1,0 -3.5,0 -2.5,0 -8,0.5 -5.5,0.5 -9,2 -3.5,1.5 -13,5 -9.5,3.5 -15,5 -5.5,1.5 -16,6 -10.5,4.5 -15.5,6.5 -5,2 -11.5,3.5 -6.5,1.5 -12,3 -5.5,1.5 -11,1.5 -5.5,0 -9,0 -3.5,0 -7.5,-0.5 -4,-0.5 -6,-1 -2,-0.5 -4.5,-2 -2.5,-1.5 -3.5,-2.5 -1,-1 -2.5,-2.5 -1.5,-1.5 -2,-2.5 -0.5,-1 -2,-3.5 -1.5,-2.5 -1.5,-4 0,-1.5 -0.5,-2.5 -0.5,-1 -2,-5.5 -1.5,-4.5 -1.5,-6.5 0,-2 -0.5,-7.5 -0.5,-5.5 -0.5,-11 0,-5.5 0.5,-9.5 0.5,-4 4.5,-11.5 4,-7.5 9,-12.999997 5,-5.5 12.5,-11.5 7.5,-6 11.5,-8 4,-2 13,-4.5 9,-2.5 13.5,-3 4.5,-0.5 15,-1.5 10.5,-1 16,-1 5.5,0 16.5,0 11,0 16.5,0 5.5,0 16,2.5 10.5,2.5 13.5,3.5 3,1 6,2 3,1 7,3.5 4,2.5 5.5,3.5 1.5,1 3.5,3 2,2 3,2.5 1,0.5 1.5,1.5 l 0.51,1.01" stroke-linecap="round" id="SvgjsPath1016"></path>
          </g>
          <g transform="translate(31.75,55.16)" id="SvgjsG1015">
            <path style="opacity:1;fill:none;fill-rule:nonzero;stroke:#000000;stroke-width:10;stroke-linecap:round;stroke-linejoin:round;stroke-miterlimit:10;stroke-dasharray:none;stroke-dashoffset:0" transform="translate(-362,-232.31)" d="m 412.01,186.8 q -0.01,0 -0.51,0 -0.5,0 -1.5,0 -1,0 -3.5,0 -2.5,0 -4.5,1.5 -2,1.5 -4.5,3 -2.5,1.5 -9.5,6.5 -7,5 -14.5,11.5 -7.5,6.5 -11.5,10 -4,3.5 -10.5,10.5 -6.5,7 -9,9.5 -2.5,2.5 -6.5,7 -4,4.5 -5,5.5 -1,1 -3,3 -2,2 -3,3.5 -1,1.5 -2,2.5 -1,1 -2,2.5 -1,1.5 -1.5,2.5 -0.5,1 -1,2 -0.5,1 -1,1.5 -0.5,0.5 -0.5,1 0,0.5 -0.5,1.5 -0.5,1 -0.5,1.5 0,0.5 -0.5,1 -0.5,0.5 -0.5,1 0,0.5 -0.5,0.5 -0.5,0 -0.5,0.5 0,0.5 -1,1 l -1.01,0.51" stroke-linecap="round" id="SvgjsPath1014"></path>
          </g>
        </g>
      </g>
    </mask>
    <filter inkscape:collect="always" style="color-interpolation-filters:sRGB" id="SvgjsFilter1013" x="-0.041924687" y="-0.044341703" width="1.0838494" height="1.0886834">
      <feGaussianBlur inkscape:collect="always" stdDeviation="4.3345015" id="SvgjsFeGaussianBlur1012"></feGaussianBlur>
    </filter>
    <linearGradient inkscape:collect="always" xlink:href="#linearGradient92129" id="SvgjsLinearGradient1011" x1="44.56496" y1="61.60841" x2="111.69468" y2="61.60841" gradientUnits="userSpaceOnUse" gradientTransform="translate(0.96057262,-0.99820603)"></linearGradient>
  </defs>
  <g inkscape:label="Layer 1" inkscape:groupmode="layer" id="SvgjsG1010">
    <g id="SvgjsG1009" transform="translate(-39.927206,-582.08993)"></g>
    <g id="SvgjsG1008" inkscape:export-filename="/home/songtech/Pictures/Songtech Logo.png" inkscape:export-xdpi="368.45999" inkscape:export-ydpi="368.45999">
      <g id="SvgjsG1007" transform="matrix(0.15225668,0,0,0.15225668,-5.6920409,-2.8783083)">
        <circle style="opacity:0.996;fill:url(#linearGradient1146);fill-opacity:1;stroke-width:0.39385;stroke-linecap:round;stroke-linejoin:round;stroke-dasharray:1.18155, 1.18155" id="SvgjsCircle1006" cx="79.090393" cy="60.610203" r="33.564861"></circle>
        <path id="SvgjsPath1005" style="opacity:0.17316;mix-blend-mode:normal;fill:#343a40;stroke-width:1.44579;stroke-linecap:round;stroke-linejoin:round;stroke-dasharray:4.33735, 4.33735;filter:url(#filter94824)" d="m 711.73242,2213.3438 c -68.04994,-8e-4 -123.21563,55.1648 -123.21484,123.2148 2.6e-4,49.1852 28.82224,91.6333 70.49609,111.3906 3.69231,-3.8654 7.56575,-7.7983 11.67774,-11.7851 -18.87093,-3.4383 -36.28279,-13.9186 -52.33399,-21.2657 15.78971,7.2274 39.63432,15.6414 59.21485,14.75 27.92873,-25.8867 64.34212,-52.5044 107.88085,-68.9433 -7.59236,-2.9692 -15.78748,-5.4347 -24.43945,-6.4414 -49.90011,-5.8061 -105.61523,32.7383 -105.61523,32.7383 0,0 58.75293,-53.252 92.23633,-53.252 16.43335,0 38.11008,10.325 55.93945,20.8457 10.18588,-3.0186 20.7185,-5.45 31.58594,-7.1719 1.27496,-8.7495 1.71671,-17.0355 1.3789,-24.8027 -5.6248,3.835 -12.62466,6.7949 -20.84375,6.7949 -23.35338,0 -31.76562,-18.8222 -31.76562,-18.8222 0,0 23.34856,13.7353 51.94336,3.5585 -2.09785,-16.9512 -8.20994,-31.0392 -17.64844,-41.5859 -7.4579,-10.9361 -50.41016,-43.9316 -50.41016,-43.9316 30.78835,48.8376 13.4375,42.4121 13.4375,42.4121 -47.7268,-9.3858 -92.05142,59.0836 -139.89453,49.0879 -47.84318,-9.9958 41.0656,-105.2543 71.59766,-106.7735 -0.40799,-0.01 -0.81459,-0.014 -1.22266,-0.017 z m 2.6543,0.035 c 0.9781,0.02 1.95628,0.056 2.93359,0.1016 -0.97731,-0.045 -1.95549,-0.08 -2.93359,-0.1016 z m 109.3418,6.9004 c -0.0219,0.039 -0.0513,0.2557 -0.0879,0.7559 0.13428,2.0607 0.17635,-0.4694 0.10743,-0.7383 -0.006,-0.022 -0.0122,-0.031 -0.0195,-0.018 z" transform="matrix(0.26247509,0,0,0.26247509,-107.94488,-551.12644)"></path>
        <g id="SvgjsG1004" inkscape:export-filename="/home/songtech/Downloads/NewLogo4.png" inkscape:export-xdpi="368.45999" inkscape:export-ydpi="368.45999" transform="translate(0.96057,-0.99820485)">
          <circle style="fill:#000000;fill-opacity:0;stroke-width:0.365001;stroke-linecap:round;stroke-linejoin:round;stroke-dasharray:1.095, 1.095" id="SvgjsCircle1003" cx="77.548706" cy="61.288486" r="31.106274"></circle>
          <path id="SvgjsPath1002" style="opacity:0.17316;mix-blend-mode:normal;fill:#343a40;stroke-width:1.44579;stroke-linecap:round;stroke-linejoin:round;stroke-dasharray:4.33735, 4.33735;filter:url(#filter94824)" d="m 711.73242,2213.3438 c -68.04994,-8e-4 -123.21563,55.1648 -123.21484,123.2148 2.6e-4,49.1852 28.82224,91.6333 70.49609,111.3906 3.69231,-3.8654 7.56575,-7.7983 11.67774,-11.7851 -18.87093,-3.4383 -36.28279,-13.9186 -52.33399,-21.2657 15.78971,7.2274 39.63432,15.6414 59.21485,14.75 27.92873,-25.8867 64.34212,-52.5044 107.88085,-68.9433 -7.59236,-2.9692 -15.78748,-5.4347 -24.43945,-6.4414 -49.90011,-5.8061 -105.61523,32.7383 -105.61523,32.7383 0,0 58.75293,-53.252 92.23633,-53.252 16.43335,0 38.11008,10.325 55.93945,20.8457 10.18588,-3.0186 20.7185,-5.45 31.58594,-7.1719 1.27496,-8.7495 1.71671,-17.0355 1.3789,-24.8027 -5.6248,3.835 -12.62466,6.7949 -20.84375,6.7949 -23.35338,0 -31.76562,-18.8222 -31.76562,-18.8222 0,0 23.34856,13.7353 51.94336,3.5585 -2.09785,-16.9512 -8.20994,-31.0392 -17.64844,-41.5859 -7.4579,-10.9361 -50.41016,-43.9316 -50.41016,-43.9316 30.78835,48.8376 13.4375,42.4121 13.4375,42.4121 -47.7268,-9.3858 -92.05142,59.0836 -139.89453,49.0879 -47.84318,-9.9958 41.0656,-105.2543 71.59766,-106.7735 -0.40799,-0.01 -0.81459,-0.014 -1.22266,-0.017 z m 2.6543,0.035 c 0.9781,0.02 1.95628,0.056 2.93359,0.1016 -0.97731,-0.045 -1.95549,-0.08 -2.93359,-0.1016 z m 109.3418,6.9004 c -0.0219,0.039 -0.0513,0.2557 -0.0879,0.7559 0.13428,2.0607 0.17635,-0.4694 0.10743,-0.7383 -0.006,-0.022 -0.0122,-0.031 -0.0195,-0.018 z" transform="matrix(0.26247509,0,0,0.26247509,-108.90545,-550.12824)"></path>
          <path id="SvgjsPath1001" style="opacity:0.996;fill:#ffffff;fill-opacity:1;stroke-width:0.365001;stroke-linecap:round;stroke-linejoin:round;stroke-dasharray:1.095, 1.095" d="m 77.912684,30.18204 c -17.17979,-1.9e-4 -31.106832,13.92685 -31.106632,31.10664 7e-5,12.44081 7.30459,23.17414 17.857832,28.14971 0.96841,-0.98203 1.97091,-1.97411 3.03754,-2.97709 -4.82169,-0.83926 -9.400988,-6.305352 -13.4956,-8.179562 4.052522,1.85494 10.34093,6.804942 15.32908,6.495932 7.26238,-6.52518 16.53751,-13.07928 27.51408,-17.18241 -2.06194,-0.84206 -4.30939,-1.55956 -6.69468,-1.83708 -12.59771,-1.46579 -26.66349,8.26513 -26.66349,8.26513 0,0 14.83275,-13.44364 23.28592,-13.44364 4.27915,0 9.96136,2.77218 14.538646,5.51233 2.43053,-0.72466 4.93742,-1.31945 7.5153,-1.76786 0.35572,-2.31725 0.47972,-4.50668 0.39068,-6.5541 -1.42004,0.96816 -3.18724,1.71513 -5.26222,1.71513 -5.895756,0 -8.019656,-4.75165 -8.019656,-4.75165 0,0 5.894926,3.46784 13.113926,0.89866 -0.52962,-4.27951 -2.07272,-7.83651 -4.45554,-10.49912 -1.88282,-2.7609 -12.726876,-11.09078 -12.726876,-11.09078 7.77278,12.32945 3.39256,10.70735 3.39256,10.70735 -12.04904,-2.36953 -23.23934,14.91604 -35.31774,12.39252 -12.078422,-2.52351 10.36782,-26.57244 18.0759,-26.95596 -0.103,-0.003 -0.20601,-0.003 -0.30903,-0.004 z m 0.67025,0.009 c 0.24693,0.005 0.49379,0.0135 0.74052,0.0249 -0.24673,-0.0114 -0.49359,-0.0193 -0.74052,-0.0249 z m 27.603996,1.74202 c -0.006,0.01 -0.0125,0.0644 -0.0217,0.19068 0.0339,0.52025 0.0443,-0.11866 0.0269,-0.18656 -0.002,-0.006 -0.003,-0.007 -0.005,-0.004 z" sodipodi:nodetypes="cccccccccscccscccccsccccccccccc"></path>
        </g>
      </g>
    </g>
  </g>
  <style id="SvgjsStyle1000"></style>
</svg><style>@media (prefers-color-scheme: light) { :root { filter: none; } }
</style></svg>