<svg version="1.1" xmlns="http://www.w3.org/2000/svg" xmlns:xlink="http://www.w3.org/1999/xlink" width="2000" height="2000"><defs/><g transform="scale(2,2)"><g id="background-54e48d0f"><rect fill="white" stroke="none" x="0" y="0" width="1000" height="1000" class="dcg-svg-background"/></g><g id="graphpaper-54e48d0f"><g id="grid-54e48d0f"><g><path fill="none" stroke="rgb(0,0,0)" class="dcg-svg-minor-gridline" paint-order="fill stroke markers" d=" M 9.5 0 L 9.5 1000" stroke-opacity="0.2" stroke-miterlimit="10" stroke-dasharray=""/><path fill="none" stroke="rgb(0,0,0)" class="dcg-svg-minor-gridline" paint-order="fill stroke markers" d=" M 35.5 0 L 35.5 1000" stroke-opacity="0.2" stroke-miterlimit="10" stroke-dasharray=""/><path fill="none" stroke="rgb(0,0,0)" class="dcg-svg-minor-gridline" paint-order="fill stroke markers" d=" M 60.5 0 L 60.5 1000" stroke-opacity="0.2" stroke-miterlimit="10" stroke-dasharray=""/><path fill="none" stroke="rgb(0,0,0)" class="dcg-svg-minor-gridline" paint-order="fill stroke markers" d=" M 86.5 0 L 86.5 1000" stroke-opacity="0.2" stroke-miterlimit="10" stroke-dasharray=""/><path fill="none" stroke="rgb(0,0,0)" class="dcg-svg-minor-gridline" paint-order="fill stroke markers" d=" M 112.5 0 L 112.5 1000" stroke-opacity="0.2" stroke-miterlimit="10" stroke-dasharray=""/><path fill="none" stroke="rgb(0,0,0)" class="dcg-svg-minor-gridline" paint-order="fill stroke markers" d=" M 137.5 0 L 137.5 1000" stroke-opacity="0.2" stroke-miterlimit="10" stroke-dasharray=""/><path fill="none" stroke="rgb(0,0,0)" class="dcg-svg-minor-gridline" paint-order="fill stroke markers" d=" M 163.5 0 L 163.5 1000" stroke-opacity="0.2" stroke-miterlimit="10" stroke-dasharray=""/><path fill="none" stroke="rgb(0,0,0)" class="dcg-svg-minor-gridline" paint-order="fill stroke markers" d=" M 189.5 0 L 189.5 1000" stroke-opacity="0.2" stroke-miterlimit="10" stroke-dasharray=""/><path fill="none" stroke="rgb(0,0,0)" class="dcg-svg-minor-gridline" paint-order="fill stroke markers" d=" M 214.5 0 L 214.5 1000" stroke-opacity="0.2" stroke-miterlimit="10" stroke-dasharray=""/><path fill="none" stroke="rgb(0,0,0)" class="dcg-svg-minor-gridline" paint-order="fill stroke markers" d=" M 240.5 0 L 240.5 1000" stroke-opacity="0.2" stroke-miterlimit="10" stroke-dasharray=""/><path fill="none" stroke="rgb(0,0,0)" class="dcg-svg-minor-gridline" paint-order="fill stroke markers" d=" M 266.5 0 L 266.5 1000" stroke-opacity="0.2" stroke-miterlimit="10" stroke-dasharray=""/><path fill="none" stroke="rgb(0,0,0)" class="dcg-svg-minor-gridline" paint-order="fill stroke markers" d=" M 291.5 0 L 291.5 1000" stroke-opacity="0.2" stroke-miterlimit="10" stroke-dasharray=""/><path fill="none" stroke="rgb(0,0,0)" class="dcg-svg-minor-gridline" paint-order="fill stroke markers" d=" M 317.5 0 L 317.5 1000" stroke-opacity="0.2" stroke-miterlimit="10" stroke-dasharray=""/><path fill="none" stroke="rgb(0,0,0)" class="dcg-svg-minor-gridline" paint-order="fill stroke markers" d=" M 343.5 0 L 343.5 1000" stroke-opacity="0.2" stroke-miterlimit="10" stroke-dasharray=""/><path fill="none" stroke="rgb(0,0,0)" class="dcg-svg-minor-gridline" paint-order="fill stroke markers" d=" M 368.5 0 L 368.5 1000" stroke-opacity="0.2" stroke-miterlimit="10" stroke-dasharray=""/><path fill="none" stroke="rgb(0,0,0)" class="dcg-svg-minor-gridline" paint-order="fill stroke markers" d=" M 394.5 0 L 394.5 1000" stroke-opacity="0.2" stroke-miterlimit="10" stroke-dasharray=""/><path fill="none" stroke="rgb(0,0,0)" class="dcg-svg-minor-gridline" paint-order="fill stroke markers" d=" M 420.5 0 L 420.5 1000" stroke-opacity="0.2" stroke-miterlimit="10" stroke-dasharray=""/><path fill="none" stroke="rgb(0,0,0)" class="dcg-svg-minor-gridline" paint-order="fill stroke markers" d=" M 445.5 0 L 445.5 1000" stroke-opacity="0.2" stroke-miterlimit="10" stroke-dasharray=""/><path fill="none" stroke="rgb(0,0,0)" class="dcg-svg-minor-gridline" paint-order="fill stroke markers" d=" M 471.5 0 L 471.5 1000" stroke-opacity="0.2" stroke-miterlimit="10" stroke-dasharray=""/><path fill="none" stroke="rgb(0,0,0)" class="dcg-svg-minor-gridline" paint-order="fill stroke markers" d=" M 497.5 0 L 497.5 1000" stroke-opacity="0.2" stroke-miterlimit="10" stroke-dasharray=""/><path fill="none" stroke="rgb(0,0,0)" class="dcg-svg-minor-gridline" paint-order="fill stroke markers" d=" M 548.5 0 L 548.5 1000" stroke-opacity="0.2" stroke-miterlimit="10" stroke-dasharray=""/><path fill="none" stroke="rgb(0,0,0)" class="dcg-svg-minor-gridline" paint-order="fill stroke markers" d=" M 574.5 0 L 574.5 1000" stroke-opacity="0.2" stroke-miterlimit="10" stroke-dasharray=""/><path fill="none" stroke="rgb(0,0,0)" class="dcg-svg-minor-gridline" paint-order="fill stroke markers" d=" M 599.5 0 L 599.5 1000" stroke-opacity="0.2" stroke-miterlimit="10" stroke-dasharray=""/><path fill="none" stroke="rgb(0,0,0)" class="dcg-svg-minor-gridline" paint-order="fill stroke markers" d=" M 625.5 0 L 625.5 1000" stroke-opacity="0.2" stroke-miterlimit="10" stroke-dasharray=""/><path fill="none" stroke="rgb(0,0,0)" class="dcg-svg-minor-gridline" paint-order="fill stroke markers" d=" M 651.5 0 L 651.5 1000" stroke-opacity="0.2" stroke-miterlimit="10" stroke-dasharray=""/><path fill="none" stroke="rgb(0,0,0)" class="dcg-svg-minor-gridline" paint-order="fill stroke markers" d=" M 676.5 0 L 676.5 1000" stroke-opacity="0.2" stroke-miterlimit="10" stroke-dasharray=""/><path fill="none" stroke="rgb(0,0,0)" class="dcg-svg-minor-gridline" paint-order="fill stroke markers" d=" M 702.5 0 L 702.5 1000" stroke-opacity="0.2" stroke-miterlimit="10" stroke-dasharray=""/><path fill="none" stroke="rgb(0,0,0)" class="dcg-svg-minor-gridline" paint-order="fill stroke markers" d=" M 728.5 0 L 728.5 1000" stroke-opacity="0.2" stroke-miterlimit="10" stroke-dasharray=""/><path fill="none" stroke="rgb(0,0,0)" class="dcg-svg-minor-gridline" paint-order="fill stroke markers" d=" M 753.5 0 L 753.5 1000" stroke-opacity="0.2" stroke-miterlimit="10" stroke-dasharray=""/><path fill="none" stroke="rgb(0,0,0)" class="dcg-svg-minor-gridline" paint-order="fill stroke markers" d=" M 779.5 0 L 779.5 1000" stroke-opacity="0.2" stroke-miterlimit="10" stroke-dasharray=""/><path fill="none" stroke="rgb(0,0,0)" class="dcg-svg-minor-gridline" paint-order="fill stroke markers" d=" M 805.5 0 L 805.5 1000" stroke-opacity="0.2" stroke-miterlimit="10" stroke-dasharray=""/><path fill="none" stroke="rgb(0,0,0)" class="dcg-svg-minor-gridline" paint-order="fill stroke markers" d=" M 830.5 0 L 830.5 1000" stroke-opacity="0.2" stroke-miterlimit="10" stroke-dasharray=""/><path fill="none" stroke="rgb(0,0,0)" class="dcg-svg-minor-gridline" paint-order="fill stroke markers" d=" M 856.5 0 L 856.5 1000" stroke-opacity="0.2" stroke-miterlimit="10" stroke-dasharray=""/><path fill="none" stroke="rgb(0,0,0)" class="dcg-svg-minor-gridline" paint-order="fill stroke markers" d=" M 882.5 0 L 882.5 1000" stroke-opacity="0.2" stroke-miterlimit="10" stroke-dasharray=""/><path fill="none" stroke="rgb(0,0,0)" class="dcg-svg-minor-gridline" paint-order="fill stroke markers" d=" M 907.5 0 L 907.5 1000" stroke-opacity="0.2" stroke-miterlimit="10" stroke-dasharray=""/><path fill="none" stroke="rgb(0,0,0)" class="dcg-svg-minor-gridline" paint-order="fill stroke markers" d=" M 933.5 0 L 933.5 1000" stroke-opacity="0.2" stroke-miterlimit="10" stroke-dasharray=""/><path fill="none" stroke="rgb(0,0,0)" class="dcg-svg-minor-gridline" paint-order="fill stroke markers" d=" M 959.5 0 L 959.5 1000" stroke-opacity="0.2" stroke-miterlimit="10" stroke-dasharray=""/><path fill="none" stroke="rgb(0,0,0)" class="dcg-svg-minor-gridline" paint-order="fill stroke markers" d=" M 984.5 0 L 984.5 1000" stroke-opacity="0.2" stroke-miterlimit="10" stroke-dasharray=""/><path fill="none" stroke="rgb(0,0,0)" class="dcg-svg-minor-gridline" paint-order="fill stroke markers" d=" M 0 983.5 L 1000 983.5" stroke-opacity="0.2" stroke-miterlimit="10" stroke-dasharray=""/><path fill="none" stroke="rgb(0,0,0)" class="dcg-svg-minor-gridline" paint-order="fill stroke markers" d=" M 0 957.5 L 1000 957.5" stroke-opacity="0.2" stroke-miterlimit="10" stroke-dasharray=""/><path fill="none" stroke="rgb(0,0,0)" class="dcg-svg-minor-gridline" paint-order="fill stroke markers" d=" M 0 931.5 L 1000 931.5" stroke-opacity="0.2" stroke-miterlimit="10" stroke-dasharray=""/><path fill="none" stroke="rgb(0,0,0)" class="dcg-svg-minor-gridline" paint-order="fill stroke markers" d=" M 0 906.5 L 1000 906.5" stroke-opacity="0.2" stroke-miterlimit="10" stroke-dasharray=""/><path fill="none" stroke="rgb(0,0,0)" class="dcg-svg-minor-gridline" paint-order="fill stroke markers" d=" M 0 880.5 L 1000 880.5" stroke-opacity="0.2" stroke-miterlimit="10" stroke-dasharray=""/><path fill="none" stroke="rgb(0,0,0)" class="dcg-svg-minor-gridline" paint-order="fill stroke markers" d=" M 0 854.5 L 1000 854.5" stroke-opacity="0.2" stroke-miterlimit="10" stroke-dasharray=""/><path fill="none" stroke="rgb(0,0,0)" class="dcg-svg-minor-gridline" paint-order="fill stroke markers" d=" M 0 829.5 L 1000 829.5" stroke-opacity="0.2" stroke-miterlimit="10" stroke-dasharray=""/><path fill="none" stroke="rgb(0,0,0)" class="dcg-svg-minor-gridline" paint-order="fill stroke markers" d=" M 0 803.5 L 1000 803.5" stroke-opacity="0.2" stroke-miterlimit="10" stroke-dasharray=""/><path fill="none" stroke="rgb(0,0,0)" class="dcg-svg-minor-gridline" paint-order="fill stroke markers" d=" M 0 777.5 L 1000 777.5" stroke-opacity="0.2" stroke-miterlimit="10" stroke-dasharray=""/><path fill="none" stroke="rgb(0,0,0)" class="dcg-svg-minor-gridline" paint-order="fill stroke markers" d=" M 0 752.5 L 1000 752.5" stroke-opacity="0.2" stroke-miterlimit="10" stroke-dasharray=""/><path fill="none" stroke="rgb(0,0,0)" class="dcg-svg-minor-gridline" paint-order="fill stroke markers" d=" M 0 726.5 L 1000 726.5" stroke-opacity="0.2" stroke-miterlimit="10" stroke-dasharray=""/><path fill="none" stroke="rgb(0,0,0)" class="dcg-svg-minor-gridline" paint-order="fill stroke markers" d=" M 0 700.5 L 1000 700.5" stroke-opacity="0.2" stroke-miterlimit="10" stroke-dasharray=""/><path fill="none" stroke="rgb(0,0,0)" class="dcg-svg-minor-gridline" paint-order="fill stroke markers" d=" M 0 675.5 L 1000 675.5" stroke-opacity="0.2" stroke-miterlimit="10" stroke-dasharray=""/><path fill="none" stroke="rgb(0,0,0)" class="dcg-svg-minor-gridline" paint-order="fill stroke markers" d=" M 0 649.5 L 1000 649.5" stroke-opacity="0.2" stroke-miterlimit="10" stroke-dasharray=""/><path fill="none" stroke="rgb(0,0,0)" class="dcg-svg-minor-gridline" paint-order="fill stroke markers" d=" M 0 623.5 L 1000 623.5" stroke-opacity="0.2" stroke-miterlimit="10" stroke-dasharray=""/><path fill="none" stroke="rgb(0,0,0)" class="dcg-svg-minor-gridline" paint-order="fill stroke markers" d=" M 0 598.5 L 1000 598.5" stroke-opacity="0.2" stroke-miterlimit="10" stroke-dasharray=""/><path fill="none" stroke="rgb(0,0,0)" class="dcg-svg-minor-gridline" paint-order="fill stroke markers" d=" M 0 572.5 L 1000 572.5" stroke-opacity="0.2" stroke-miterlimit="10" stroke-dasharray=""/><path fill="none" stroke="rgb(0,0,0)" class="dcg-svg-minor-gridline" paint-order="fill stroke markers" d=" M 0 546.5 L 1000 546.5" stroke-opacity="0.2" stroke-miterlimit="10" stroke-dasharray=""/><path fill="none" stroke="rgb(0,0,0)" class="dcg-svg-minor-gridline" paint-order="fill stroke markers" d=" M 0 495.5 L 1000 495.5" stroke-opacity="0.2" stroke-miterlimit="10" stroke-dasharray=""/><path fill="none" stroke="rgb(0,0,0)" class="dcg-svg-minor-gridline" paint-order="fill stroke markers" d=" M 0 469.5 L 1000 469.5" stroke-opacity="0.2" stroke-miterlimit="10" stroke-dasharray=""/><path fill="none" stroke="rgb(0,0,0)" class="dcg-svg-minor-gridline" paint-order="fill stroke markers" d=" M 0 444.5 L 1000 444.5" stroke-opacity="0.2" stroke-miterlimit="10" stroke-dasharray=""/><path fill="none" stroke="rgb(0,0,0)" class="dcg-svg-minor-gridline" paint-order="fill stroke markers" d=" M 0 418.5 L 1000 418.5" stroke-opacity="0.2" stroke-miterlimit="10" stroke-dasharray=""/><path fill="none" stroke="rgb(0,0,0)" class="dcg-svg-minor-gridline" paint-order="fill stroke markers" d=" M 0 392.5 L 1000 392.5" stroke-opacity="0.2" stroke-miterlimit="10" stroke-dasharray=""/><path fill="none" stroke="rgb(0,0,0)" class="dcg-svg-minor-gridline" paint-order="fill stroke markers" d=" M 0 367.5 L 1000 367.5" stroke-opacity="0.2" stroke-miterlimit="10" stroke-dasharray=""/><path fill="none" stroke="rgb(0,0,0)" class="dcg-svg-minor-gridline" paint-order="fill stroke markers" d=" M 0 341.5 L 1000 341.5" stroke-opacity="0.2" stroke-miterlimit="10" stroke-dasharray=""/><path fill="none" stroke="rgb(0,0,0)" class="dcg-svg-minor-gridline" paint-order="fill stroke markers" d=" M 0 315.5 L 1000 315.5" stroke-opacity="0.2" stroke-miterlimit="10" stroke-dasharray=""/><path fill="none" stroke="rgb(0,0,0)" class="dcg-svg-minor-gridline" paint-order="fill stroke markers" d=" M 0 290.5 L 1000 290.5" stroke-opacity="0.2" stroke-miterlimit="10" stroke-dasharray=""/><path fill="none" stroke="rgb(0,0,0)" class="dcg-svg-minor-gridline" paint-order="fill stroke markers" d=" M 0 264.5 L 1000 264.5" stroke-opacity="0.2" stroke-miterlimit="10" stroke-dasharray=""/><path fill="none" stroke="rgb(0,0,0)" class="dcg-svg-minor-gridline" paint-order="fill stroke markers" d=" M 0 238.5 L 1000 238.5" stroke-opacity="0.2" stroke-miterlimit="10" stroke-dasharray=""/><path fill="none" stroke="rgb(0,0,0)" class="dcg-svg-minor-gridline" paint-order="fill stroke markers" d=" M 0 213.5 L 1000 213.5" stroke-opacity="0.2" stroke-miterlimit="10" stroke-dasharray=""/><path fill="none" stroke="rgb(0,0,0)" class="dcg-svg-minor-gridline" paint-order="fill stroke markers" d=" M 0 187.5 L 1000 187.5" stroke-opacity="0.2" stroke-miterlimit="10" stroke-dasharray=""/><path fill="none" stroke="rgb(0,0,0)" class="dcg-svg-minor-gridline" paint-order="fill stroke markers" d=" M 0 161.5 L 1000 161.5" stroke-opacity="0.2" stroke-miterlimit="10" stroke-dasharray=""/><path fill="none" stroke="rgb(0,0,0)" class="dcg-svg-minor-gridline" paint-order="fill stroke markers" d=" M 0 136.5 L 1000 136.5" stroke-opacity="0.2" stroke-miterlimit="10" stroke-dasharray=""/><path fill="none" stroke="rgb(0,0,0)" class="dcg-svg-minor-gridline" paint-order="fill stroke markers" d=" M 0 110.5 L 1000 110.5" stroke-opacity="0.2" stroke-miterlimit="10" stroke-dasharray=""/><path fill="none" stroke="rgb(0,0,0)" class="dcg-svg-minor-gridline" paint-order="fill stroke markers" d=" M 0 84.5 L 1000 84.5" stroke-opacity="0.2" stroke-miterlimit="10" stroke-dasharray=""/><path fill="none" stroke="rgb(0,0,0)" class="dcg-svg-minor-gridline" paint-order="fill stroke markers" d=" M 0 59.5 L 1000 59.5" stroke-opacity="0.2" stroke-miterlimit="10" stroke-dasharray=""/><path fill="none" stroke="rgb(0,0,0)" class="dcg-svg-minor-gridline" paint-order="fill stroke markers" d=" M 0 33.5 L 1000 33.5" stroke-opacity="0.2" stroke-miterlimit="10" stroke-dasharray=""/><path fill="none" stroke="rgb(0,0,0)" class="dcg-svg-minor-gridline" paint-order="fill stroke markers" d=" M 0 7.5 L 1000 7.5" stroke-opacity="0.2" stroke-miterlimit="10" stroke-dasharray=""/><path fill="none" stroke="rgb(0,0,0)" class="dcg-svg-major-gridline" paint-order="fill stroke markers" d=" M 9.5 0 L 9.5 1000" stroke-opacity="0.2500000000000001" stroke-miterlimit="10" stroke-dasharray=""/><path fill="none" stroke="rgb(0,0,0)" class="dcg-svg-major-gridline" paint-order="fill stroke markers" d=" M 137.5 0 L 137.5 1000" stroke-opacity="0.2500000000000001" stroke-miterlimit="10" stroke-dasharray=""/><path fill="none" stroke="rgb(0,0,0)" class="dcg-svg-major-gridline" paint-order="fill stroke markers" d=" M 266.5 0 L 266.5 1000" stroke-opacity="0.2500000000000001" stroke-miterlimit="10" stroke-dasharray=""/><path fill="none" stroke="rgb(0,0,0)" class="dcg-svg-major-gridline" paint-order="fill stroke markers" d=" M 394.5 0 L 394.5 1000" stroke-opacity="0.2500000000000001" stroke-miterlimit="10" stroke-dasharray=""/><path fill="none" stroke="rgb(0,0,0)" class="dcg-svg-major-gridline" paint-order="fill stroke markers" d=" M 651.5 0 L 651.5 1000" stroke-opacity="0.2500000000000001" stroke-miterlimit="10" stroke-dasharray=""/><path fill="none" stroke="rgb(0,0,0)" class="dcg-svg-major-gridline" paint-order="fill stroke markers" d=" M 779.5 0 L 779.5 1000" stroke-opacity="0.2500000000000001" stroke-miterlimit="10" stroke-dasharray=""/><path fill="none" stroke="rgb(0,0,0)" class="dcg-svg-major-gridline" paint-order="fill stroke markers" d=" M 907.5 0 L 907.5 1000" stroke-opacity="0.2500000000000001" stroke-miterlimit="10" stroke-dasharray=""/><path fill="none" stroke="rgb(0,0,0)" class="dcg-svg-major-gridline" paint-order="fill stroke markers" d=" M 0 906.5 L 1000 906.5" stroke-opacity="0.2500000000000001" stroke-miterlimit="10" stroke-dasharray=""/><path fill="none" stroke="rgb(0,0,0)" class="dcg-svg-major-gridline" paint-order="fill stroke markers" d=" M 0 777.5 L 1000 777.5" stroke-opacity="0.2500000000000001" stroke-miterlimit="10" stroke-dasharray=""/><path fill="none" stroke="rgb(0,0,0)" class="dcg-svg-major-gridline" paint-order="fill stroke markers" d=" M 0 649.5 L 1000 649.5" stroke-opacity="0.2500000000000001" stroke-miterlimit="10" stroke-dasharray=""/><path fill="none" stroke="rgb(0,0,0)" class="dcg-svg-major-gridline" paint-order="fill stroke markers" d=" M 0 392.5 L 1000 392.5" stroke-opacity="0.2500000000000001" stroke-miterlimit="10" stroke-dasharray=""/><path fill="none" stroke="rgb(0,0,0)" class="dcg-svg-major-gridline" paint-order="fill stroke markers" d=" M 0 264.5 L 1000 264.5" stroke-opacity="0.2500000000000001" stroke-miterlimit="10" stroke-dasharray=""/><path fill="none" stroke="rgb(0,0,0)" class="dcg-svg-major-gridline" paint-order="fill stroke markers" d=" M 0 136.5 L 1000 136.5" stroke-opacity="0.2500000000000001" stroke-miterlimit="10" stroke-dasharray=""/><path fill="none" stroke="rgb(0,0,0)" class="dcg-svg-major-gridline" paint-order="fill stroke markers" d=" M 0 7.5 L 1000 7.5" stroke-opacity="0.2500000000000001" stroke-miterlimit="10" stroke-dasharray=""/></g></g><g id="axis-54e48d0f"><g id="yaxis-54e48d0f"><title>Y axis</title><g><path fill="none" stroke="rgb(0,0,0)" class="dcg-svg-axis-line" paint-order="fill stroke markers" d=" M 523 0 L 523 1000" stroke-opacity="0.9" stroke-miterlimit="10" stroke-width="1.5" stroke-dasharray=""/></g></g><g id="xaxis-54e48d0f"><title>X axis</title><g><path fill="none" stroke="rgb(0,0,0)" class="dcg-svg-axis-line" paint-order="fill stroke markers" d=" M 0 521 L 1000 521" stroke-opacity="0.9" stroke-miterlimit="10" stroke-width="1.5" stroke-dasharray=""/></g></g><g><g class="dcg-svg-axis-value"><text fill="none" stroke="#ffffff" font-family="Arial" font-size="14px" font-style="normal" font-weight="normal" text-decoration="normal" x="513.9732516644162" y="536.8462497666418" text-anchor="middle" stroke-miterlimit="2" stroke-width="3" stroke-dasharray="">0</text><text fill="#000000" stroke="none" font-family="Arial" font-size="14px" font-style="normal" font-weight="normal" text-decoration="normal" x="513.9732516644162" y="536.8462497666418" text-anchor="middle">0</text></g><g class="dcg-svg-axis-value dcg-svg-offcenter-axis-value"><text fill="none" stroke="#ffffff" font-family="Arial" font-size="14px" font-style="normal" font-weight="normal" text-decoration="normal" x="13.5" y="536.8462497666418" text-anchor="middle" stroke-miterlimit="2" stroke-width="3" stroke-dasharray="">-20</text><text fill="#000000" stroke="none" font-family="Arial" font-size="14px" font-style="normal" font-weight="normal" text-decoration="normal" x="13.5" y="536.8462497666418" text-anchor="middle">-20</text></g><g class="dcg-svg-axis-value"><text fill="none" stroke="#ffffff" font-family="Arial" font-size="14px" font-style="normal" font-weight="normal" text-decoration="normal" x="135.48902392054822" y="536.8462497666418" text-anchor="middle" stroke-miterlimit="2" stroke-width="3" stroke-dasharray="">-15</text><text fill="#000000" stroke="none" font-family="Arial" font-size="14px" font-style="normal" font-weight="normal" text-decoration="normal" x="135.48902392054822" y="536.8462497666418" text-anchor="middle">-15</text></g><g class="dcg-svg-axis-value"><text fill="none" stroke="#ffffff" font-family="Arial" font-size="14px" font-style="normal" font-weight="normal" text-decoration="normal" x="263.8170998351709" y="536.8462497666418" text-anchor="middle" stroke-miterlimit="2" stroke-width="3" stroke-dasharray="">-10</text><text fill="#000000" stroke="none" font-family="Arial" font-size="14px" font-style="normal" font-weight="normal" text-decoration="normal" x="263.8170998351709" y="536.8462497666418" text-anchor="middle">-10</text></g><g class="dcg-svg-axis-value"><text fill="none" stroke="#ffffff" font-family="Arial" font-size="14px" font-style="normal" font-weight="normal" text-decoration="normal" x="392.14517574979357" y="536.8462497666418" text-anchor="middle" stroke-miterlimit="2" stroke-width="3" stroke-dasharray="">-5</text><text fill="#000000" stroke="none" font-family="Arial" font-size="14px" font-style="normal" font-weight="normal" text-decoration="normal" x="392.14517574979357" y="536.8462497666418" text-anchor="middle">-5</text></g><g class="dcg-svg-axis-value"><text fill="none" stroke="#ffffff" font-family="Arial" font-size="14px" font-style="normal" font-weight="normal" text-decoration="normal" x="651.3013275790389" y="536.8462497666418" text-anchor="middle" stroke-miterlimit="2" stroke-width="3" stroke-dasharray="">5</text><text fill="#000000" stroke="none" font-family="Arial" font-size="14px" font-style="normal" font-weight="normal" text-decoration="normal" x="651.3013275790389" y="536.8462497666418" text-anchor="middle">5</text></g><g class="dcg-svg-axis-value"><text fill="none" stroke="#ffffff" font-family="Arial" font-size="14px" font-style="normal" font-weight="normal" text-decoration="normal" x="779.6294034936616" y="536.8462497666418" text-anchor="middle" stroke-miterlimit="2" stroke-width="3" stroke-dasharray="">10</text><text fill="#000000" stroke="none" font-family="Arial" font-size="14px" font-style="normal" font-weight="normal" text-decoration="normal" x="779.6294034936616" y="536.8462497666418" text-anchor="middle">10</text></g><g class="dcg-svg-axis-value"><text fill="none" stroke="#ffffff" font-family="Arial" font-size="14px" font-style="normal" font-weight="normal" text-decoration="normal" x="907.9574794082843" y="536.8462497666418" text-anchor="middle" stroke-miterlimit="2" stroke-width="3" stroke-dasharray="">15</text><text fill="#000000" stroke="none" font-family="Arial" font-size="14px" font-style="normal" font-weight="normal" text-decoration="normal" x="907.9574794082843" y="536.8462497666418" text-anchor="middle">15</text></g><g class="dcg-svg-axis-value"><text fill="none" stroke="#ffffff" font-family="Arial" font-size="14px" font-style="normal" font-weight="normal" text-decoration="normal" x="507.47325166441624" y="909.8304775105096" text-anchor="middle" stroke-miterlimit="2" stroke-width="3" stroke-dasharray="">-15</text><text fill="#000000" stroke="none" font-family="Arial" font-size="14px" font-style="normal" font-weight="normal" text-decoration="normal" x="507.47325166441624" y="909.8304775105096" text-anchor="middle">-15</text></g><g class="dcg-svg-axis-value"><text fill="none" stroke="#ffffff" font-family="Arial" font-size="14px" font-style="normal" font-weight="normal" text-decoration="normal" x="507.47325166441624" y="781.502401595887" text-anchor="middle" stroke-miterlimit="2" stroke-width="3" stroke-dasharray="">-10</text><text fill="#000000" stroke="none" font-family="Arial" font-size="14px" font-style="normal" font-weight="normal" text-decoration="normal" x="507.47325166441624" y="781.502401595887" text-anchor="middle">-10</text></g><g class="dcg-svg-axis-value"><text fill="none" stroke="#ffffff" font-family="Arial" font-size="14px" font-style="normal" font-weight="normal" text-decoration="normal" x="511.47325166441624" y="653.1743256812643" text-anchor="middle" stroke-miterlimit="2" stroke-width="3" stroke-dasharray="">-5</text><text fill="#000000" stroke="none" font-family="Arial" font-size="14px" font-style="normal" font-weight="normal" text-decoration="normal" x="511.47325166441624" y="653.1743256812643" text-anchor="middle">-5</text></g><g class="dcg-svg-axis-value"><text fill="none" stroke="#ffffff" font-family="Arial" font-size="14px" font-style="normal" font-weight="normal" text-decoration="normal" x="513.9732516644162" y="396.51817385201923" text-anchor="middle" stroke-miterlimit="2" stroke-width="3" stroke-dasharray="">5</text><text fill="#000000" stroke="none" font-family="Arial" font-size="14px" font-style="normal" font-weight="normal" text-decoration="normal" x="513.9732516644162" y="396.51817385201923" text-anchor="middle">5</text></g><g class="dcg-svg-axis-value"><text fill="none" stroke="#ffffff" font-family="Arial" font-size="14px" font-style="normal" font-weight="normal" text-decoration="normal" x="509.97325166441624" y="268.1900979373966" text-anchor="middle" stroke-miterlimit="2" stroke-width="3" stroke-dasharray="">10</text><text fill="#000000" stroke="none" font-family="Arial" font-size="14px" font-style="normal" font-weight="normal" text-decoration="normal" x="509.97325166441624" y="268.1900979373966" text-anchor="middle">10</text></g><g class="dcg-svg-axis-value"><text fill="none" stroke="#ffffff" font-family="Arial" font-size="14px" font-style="normal" font-weight="normal" text-decoration="normal" x="509.97325166441624" y="139.86202202277406" text-anchor="middle" stroke-miterlimit="2" stroke-width="3" stroke-dasharray="">15</text><text fill="#000000" stroke="none" font-family="Arial" font-size="14px" font-style="normal" font-weight="normal" text-decoration="normal" x="509.97325166441624" y="139.86202202277406" text-anchor="middle">15</text></g><g class="dcg-svg-axis-value dcg-svg-offcenter-axis-value"><text fill="none" stroke="#ffffff" font-family="Arial" font-size="14px" font-style="normal" font-weight="normal" text-decoration="normal" x="509.97325166441624" y="13.808" text-anchor="middle" stroke-miterlimit="2" stroke-width="3" stroke-dasharray="">20</text><text fill="#000000" stroke="none" font-family="Arial" font-size="14px" font-style="normal" font-weight="normal" text-decoration="normal" x="509.97325166441624" y="13.808" text-anchor="middle">20</text></g></g></g></g><g id="expressions-54e48d0f"><g id="sketch-54e48d0f"><title>Expression 1</title><path fill="#c74440" stroke="none" paint-order="stroke fill markers" d="" fill-opacity="0.4"/><g><path fill="none" stroke="#c74440" class="dcg-svg-curve" paint-order="fill stroke markers" d=" M -3.5637661282061117 -5.5 L 4.214627797691594 2.27795525402131 M 9.164514841444678 7.2275631429439615 L 16.942908767342384 15.005518396965272 M 21.89279581109547 19.955126285887925 L 29.671189736993178 27.733081539909236 M 34.621076780746264 32.682689428831885 L 42.39947070664397 40.46064468285319 M 47.349357750397054 45.41025257177584 L 55.12775167629476 53.18820782579715 M 60.077638720047844 58.1378157147198 L 67.85603264594555 65.91577096874111 M 72.80591968969863 70.86537885766377 L 80.58431361559633 78.64333411168508 M 85.53420065934941 83.59294200060774 L 93.31259458524711 91.37089725462904 M 98.26248162900019 96.3205051435517 L 106.0408755548979 104.098460397573 M 110.99076259865097 109.04806828649566 L 118.76915652454868 116.82602354051697 M 123.71904356830176 121.77563142943963 L 131.49743749419946 129.55358668346094 M 136.44732453795254 134.5031945723836 L 144.22571846385026 142.2811498264049 M 149.17560550760334 147.23075771532757 L 156.95399943350105 155.0087129693489 M 161.90388647725413 159.95832085827155 L 169.68228040315185 167.73627611229287 M 174.63216744690493 172.68588400121553 L 182.41056137280265 180.46383925523685 M 187.36044841655573 185.4134471441595 L 195.13884234245344 193.19140239818083 M 200.08872938620652 198.14101028710348 L 207.86712331210424 205.9189655411248 M 212.81701035585732 210.86857343004746 L 220.59540428175504 218.64652868406876 M 225.54529132550812 223.5961365729914 L 233.32368525140583 231.3740918270127 M 238.2735722951589 236.32369971593536 L 246.05196622105663 244.10165496995666 M 251.0018532648097 249.0512628588793 L 258.7802471907074 256.8292181129006 M 263.73013423446054 261.77882600182323 L 271.50852816035825 269.55678125584456 M 276.45841520411136 274.5063891447672 L 284.2368091300091 282.2843443987885 M 289.1866961737622 287.23395228771113 L 296.9650900996599 295.01190754173246 M 301.914977143413 299.9615154306551 L 309.69337106931073 307.7394706846764 M 314.64325811306384 312.68907857359903 L 322.42165203896155 320.46703382762036 M 327.37153908271466 325.416641716543 L 335.1499330086124 333.1945969705643 M 340.09982005236543 338.14420485948693 L 347.87821397826315 345.92216011350826 M 352.8281010220162 350.8717680024309 L 360.6064949479139 358.6497232564522 M 365.55638199166697 363.59933114537483 L 373.3347759175647 371.37728639939616 M 378.28466296131774 376.3268942883188 L 386.06305688721545 384.1048495423401 M 391.0129439309685 389.05445743126273 L 398.7913378568662 396.83241268528405 M 403.74122490061933 401.7820205742067 L 411.51961882651705 409.559975828228 M 416.4695058702701 414.50958371715063 L 424.2478997961678 422.28753897117195 M 429.19778683992087 427.23714686009464 L 436.9761807658186 435.01510211411596 M 441.92606780957163 439.9647100030386 L 449.70446173546935 447.7426652570599 M 454.6543487792224 452.69227314598254 L 462.4327427051201 460.47022840000386 M 467.3826297488732 465.41983628892655 L 475.16102367477095 473.19779154294787 M 480.110910718524 478.1473994318705 L 487.8893046444217 485.9253546858918 M 492.83919168817476 490.8749625748145 L 500.6175856140725 498.6529178288358 M 505.56747265782553 503.60252571775845 L 513.3458665837233 511.3804809717798 M 518.2957536274763 516.3300888607024 L 522.9556200327709 520.9896924672291 M 522.9556200327709 520.9896924672291 L 519.8563127025817 524.127147640969 M 514.9206286567271 529.0908727743309 L 507.1424540636751 536.8690473673829 M 502.19270659536926 541.8187948356888 L 494.41453200231723 549.5969694287407 M 489.4647845340114 554.5467168970466 L 481.6866099409594 562.3248914900986 M 476.73686247265357 567.2746389584045 L 468.95868787960154 575.0528135514564 M 464.0089404112957 580.0025610197623 L 456.2307658182437 587.7807356128143 M 451.2810183499379 592.7304830811202 L 443.50284375688585 600.5086576741721 M 438.55309628858004 605.458405142478 L 430.774921695528 613.23657973553 M 425.8251742272222 618.1863272038358 L 418.04699963417016 625.9645017968878 M 413.09725216586435 630.9142492651937 L 405.3190775728123 638.6924238582457 M 400.3693301045065 643.6421713265515 L 392.5911555114545 651.4203459196035 M 387.64140804314866 656.3700933879094 L 379.86323345009663 664.1482679809614 M 374.9134859817908 669.0980154492672 L 367.1353113887388 676.8761900423192 M 362.18556392043297 681.8259375106251 L 354.40738932738094 689.604112103677 M 349.4576418590751 694.5538595719829 L 341.6794672660231 702.3320341650349 M 336.7297197977173 707.2817816333408 L 328.95154520466525 715.0599562263927 M 324.00179773635944 720.0097036946986 L 316.2236231433074 727.7878782877506 M 311.2738756750016 732.7376257560564 L 303.49570108194956 740.5158003491084 M 298.54595361364375 745.4655478174143 L 290.7677790205917 753.2437224104663 M 285.8180315522859 758.1934698787721 L 278.0398569592339 765.9716444718241 M 273.09010949092806 770.92139194013 L 265.31193489787603 778.699566533182 M 260.3621874295702 783.6493140014878 L 252.58401283651818 791.4274885945398 M 247.63426536821234 796.3772360628457 L 239.8560907751603 804.1554106558976 M 234.90634330685447 809.1051581242035 L 227.12816871380244 816.8833327172555 M 222.1784212454966 821.8330801855614 L 214.40024665244457 829.6112547786133 M 209.45049918413872 834.5610022469192 L 201.6723245910867 842.3391768399712 M 196.72257712278085 847.288924308277 L 188.94440252972882 855.067098901329 M 183.99465506142297 860.0168463696349 L 176.21648046837095 867.7950209626869 M 171.2667330000651 872.7447684309927 L 163.48855840701307 880.5229430240447 M 158.53881093870723 885.4726904923506 L 150.7606363456552 893.2508650854026 M 145.81088887734936 898.2006125537084 L 138.03271428429733 905.9787871467604 M 133.08296681599148 910.9285346150663 L 125.30479222293945 918.7067092081182 M 120.35504475463361 923.6564566764241 L 112.57687016158158 931.4346312694761 M 107.62712269327574 936.384378737782 L 99.84894810022371 944.162553330834 M 94.89920063191786 949.1123007991399 L 87.12102603886584 956.8904753921919 M 82.17127857055999 961.8402228604978 L 74.39310397750796 969.6183974535497 M 69.44335650920212 974.5681449218556 L 61.66518191615009 982.3463195149076 M 56.71543444784425 987.2960669832134 L 48.937259854792224 995.0742415762654 M 43.98751238648639 1000.0239890445713 L 38.511501431057695 1005.5" stroke-linecap="round" stroke-linejoin="round" stroke-miterlimit="10" stroke-width="2.5" stroke-dasharray=""/></g><g><path fill="none" stroke="#c74440" class="dcg-svg-curve" paint-order="fill stroke markers" d=" M 1005.5 1003.550768533589 L 997.7243584435929 995.770061728531 M 992.7762229076975 990.818702852585 L 985.0005813512904 983.037996047527 M 980.052445815395 978.0866371715811 L 972.2768042589879 970.3059303665231 M 967.3286687230925 965.3545714905771 L 959.5530271666854 957.5738646855191 M 954.60489163079 952.6225058095731 L 946.8292500743829 944.8417990045151 M 941.8811145384875 939.8904401285691 L 934.1054729820804 932.1097333235111 M 929.157337446185 927.1583744475652 L 921.3816958897779 919.3776676425072 M 916.4335603538825 914.4263087665612 L 908.6579187974754 906.6456019615032 M 903.70978326158 901.6942430855572 L 895.9341417051729 893.9135362804992 M 890.9860061692775 888.9621774045532 L 883.2103646128704 881.1814705994952 M 878.262229076975 876.2301117235493 L 870.4865875205679 868.4494049184913 M 865.5384519846725 863.4980460425453 L 857.7628104282654 855.7173392374873 M 852.81467489237 850.7659803615413 L 845.0390333359629 842.9852735564833 M 840.0908978000675 838.0339146805374 L 832.3152562436604 830.2532078754793 M 827.367120707765 825.3018489995334 L 819.5914791513579 817.5211421944754 M 814.6433436154625 812.5697833185294 L 806.8677020590554 804.7890765134714 M 801.91956652316 799.8377176375254 L 794.1439249667529 792.0570108324674 M 789.1957894308575 787.1056519565215 L 781.4201478744504 779.3249451514635 M 776.472012338555 774.3735862755175 L 768.6963707821479 766.5928794704595 M 763.7482352462525 761.6415205945135 L 755.9725936898454 753.8608137894555 M 751.02445815395 748.9094549135095 L 743.2488165975429 741.1287481084515 M 738.3006810616475 736.1773892325056 L 730.5250395052404 728.3966824274476 M 725.576903969345 723.4453235515016 L 717.801262412938 715.6646167464436 M 712.8531268770425 710.7132578704976 L 705.0774853206354 702.9325510654396 M 700.12934978474 697.9811921894936 L 692.353708228333 690.2004853844356 M 687.4055726924375 685.2491265084897 L 679.6299311360306 677.4684197034317 M 674.6817956001352 672.5170608274857 L 666.9061540437282 664.7363540224277 M 661.9580185078328 659.7849951464817 L 654.1823769514257 652.0042883414237 M 649.2342414155303 647.0529294654777 L 641.4585998591233 639.2722226604197 M 636.5104643232279 634.3208637844738 L 628.7348227668208 626.5401569794158 M 623.7866872309254 621.5887981034698 L 616.0110456745184 613.8080912984119 M 611.062910138623 608.8567324224659 L 603.287268582216 601.0760256174079 M 598.3391330463206 596.124666741462 L 590.5634914899135 588.3439599364041 M 585.6153559540181 583.3926010604581 L 577.8397143976111 575.6118942554001 M 572.8915788617157 570.6605353794541 L 565.1159373053088 562.8798285743962 M 560.1678017694134 557.9284696984503 L 552.3921602130063 550.1477628933924 M 547.4440246771109 545.1964040174464 L 539.6683831207039 537.4156972123884 M 534.7202475848085 532.4643383364424 L 526.9446060284015 524.6836315313845 M 524.278857195619 519.732644235439 L 532.057031788671 511.954469642387 M 537.0067792569769 507.00472217408117 L 544.7849538500288 499.22654758102914 M 549.7347013183347 494.2768001127233 L 557.5128759113867 486.4986255196713 M 562.4626233796926 481.5488780513655 L 570.2407979727445 473.77070345831345 M 575.1905454410504 468.82095599000763 L 582.9687200341024 461.0427813969556 M 587.9184675024082 456.0930339286498 L 595.6966420954602 448.31485933559776 M 600.6463895637661 443.36511186729194 L 608.4245641568181 435.5869372742399 M 613.3743116251239 430.6371898059341 L 621.1524862181759 422.85901521288207 M 626.1022336864818 417.90926774457625 L 633.8804082795338 410.1310931515242 M 638.8301557478396 405.1813456832184 L 646.6083303408916 397.4031710901664 M 651.5580778091975 392.45342362186057 L 659.3362524022496 384.67524902880854 M 664.2859998705554 379.7255015605027 L 672.0641744636074 371.9473269674507 M 677.0139219319133 366.9975794991449 L 684.7920965249652 359.21940490609285 M 689.7418439932711 354.26965743778703 L 697.5200185863232 346.491482844735 M 702.4697660546291 341.5417353764292 L 710.247940647681 333.76356078337716 M 715.1976881159869 328.81381331507134 L 722.9758627090389 321.0356387220193 M 727.9256101773448 316.0858912537135 L 735.7037847703967 308.30771666066147 M 740.6535322387026 303.35796919235565 L 748.4317068317546 295.5797945993036 M 753.3814543000605 290.6300471309978 L 761.1596288931124 282.8518725379458 M 766.1093763614183 277.90212506963996 L 773.8875509544703 270.12395047658794 M 778.8372984227761 265.1742030082821 L 786.6154730158282 257.3960284152301 M 791.5652204841341 252.44628094692425 L 799.3433950771861 244.66810635387222 M 804.293142545492 239.71835888556637 L 812.0713171385439 231.94018429251435 M 817.0210646068498 226.9904368242085 L 824.7992391999018 219.21226223115647 M 829.7489866682076 214.26251476285063 L 837.5271612612596 206.4843401697986 M 842.4769087295655 201.53459270149276 L 850.2550833226176 193.75641810844073 M 855.2048307909234 188.80667064013488 L 862.9830053839754 181.02849604708285 M 867.9327528522813 176.07874857877704 L 875.7109274453333 168.300573985725 M 880.6606749136391 163.3508265174192 L 888.4388495066911 155.57265192436716 M 893.388596974997 150.62290445606135 L 901.166771568049 142.84472986300932 M 906.1165190363548 137.8949823947035 L 913.8946936294068 130.11680780165148 M 918.8444410977127 125.16706033334565 L 926.6226156907647 117.38888574029363 M 931.5723631590706 112.4391382719878 L 939.3505377521226 104.66096367893579 M 944.3002852204285 99.71121621062996 L 952.0784598134804 91.93304161757794 M 957.0282072817863 86.98329414927211 L 964.8063818748383 79.2051195562201 M 969.7561293431442 74.25537208791427 L 977.5343039361961 66.47719749486225 M 982.484051404502 61.52745002655642 L 990.262225997554 53.7492754335044 M 995.2119734658598 48.799527965198564 L 1002.9901480589119 41.02135337214654" stroke-linecap="round" stroke-linejoin="round" stroke-miterlimit="10" stroke-width="2.5" stroke-dasharray=""/></g><path fill="#c74440" stroke="none" class="dcg-svg-region" paint-order="stroke fill markers" d=" M -3 1003 L -3 -3 L -1.0636251297489707 -3 L 522.9556200327709 520.9896924672291 L 517.578125 526.433376431058 L 41.011501431057695 1003 L -3 1003 M 1003 1001.0491399706548 L 523.137477993558 520.8740234375 L 1003 41.011501431058434 L 1003 1001.0491399706548" fill-opacity="0.4"/></g><g id="sketch-54e48d0f"><title>Expression 2</title><path fill="#2d70b3" stroke="none" paint-order="stroke fill markers" d="" fill-opacity="0.4"/><g><path fill="none" stroke="#2d70b3" class="dcg-svg-curve" paint-order="fill stroke markers" d=" M 1005.5 38.511501431058434 L 997.721825406948 46.289676024110456 M 992.7720779386422 51.239423492416286 L 984.9939033455902 59.01759808546831 M 980.0441558772843 63.96734555377414 L 972.2659812842323 71.74552014682615 M 967.3162338159265 76.69526761513198 L 959.5380592228745 84.473442208184 M 954.5883117545686 89.42318967648983 L 946.8101371615166 97.20136426954184 M 941.8603896932108 102.15111173784767 L 934.0822151001588 109.92928633089969 M 929.1324676318529 114.87903379920552 L 921.354293038801 122.65720839225753 M 916.4045455704951 127.60695586056336 L 908.626370977443 135.38513045361537 M 903.6766235091371 140.33487792192122 L 895.8984489160852 148.11305251497325 M 890.9487014477793 153.0627999832791 L 883.1705268547273 160.84097457633112 M 878.2207793864214 165.79072204463696 L 870.4426047933695 173.568896637689 M 865.4928573250636 178.51864410599484 L 857.7146827320116 186.29681869904687 M 852.7649352637058 191.24656616735268 L 844.9867606706538 199.0247407604047 M 840.0370132023479 203.97448822871053 L 832.2588386092959 211.75266282176256 M 827.3090911409901 216.70241029006837 L 819.530916547938 224.4805848831204 M 814.5811690796321 229.43033235142622 L 806.8029944865801 237.20850694447824 M 801.8532470182743 242.1582544127841 L 794.0750724252223 249.93642900583612 M 789.1253249569164 254.88617647414196 L 781.3471503638644 262.664351067194 M 776.3974028955586 267.6140985354998 L 768.6192283025066 275.39227312855184 M 763.6694808342007 280.34202059685765 L 755.8913062411486 288.1201951899097 M 750.9415587728428 293.0699426582155 L 743.1633841797908 300.8481172512675 M 738.2136367114849 305.79786471957334 L 730.435462118433 313.57603931262537 M 725.4857146501271 318.5257867809312 L 717.7075400570751 326.3039613739832 M 712.7577925887692 331.25370884228903 L 704.9796179957173 339.03188343534106 M 700.0298705274114 343.9816309036469 L 692.2516959343594 351.7598054966989 M 687.3019484660535 356.7095529650047 L 679.5237738730016 364.48772755805675 M 674.5740264046957 369.43747502636256 L 666.7958518116436 377.2156496194146 M 661.8461043433377 382.1653970877204 L 654.0679297502858 389.94357168077244 M 649.1181822819799 394.89331914907825 L 641.3400076889279 402.6714937421303 M 636.390260220622 407.6212412104361 L 628.6120856275701 415.3994158034881 M 623.6623381592642 420.34916327179394 L 615.8841635662121 428.12733786484597 M 610.9344160979063 433.0770853331518 L 603.1562415048543 440.8552599262038 M 598.2064940365484 445.80500739450963 L 590.4283194434964 453.58318198756166 M 585.4785719751906 458.5329294558675 L 577.7003973821386 466.3111040489195 M 572.7506499138327 471.2608515172253 L 564.9724753207807 479.03902611027735 M 560.0227278524749 483.98877357858316 L 552.2445532594229 491.7669481716352 M 547.294805791117 496.716695639941 L 539.5166311980649 504.49487023299304 M 534.5668837297591 509.44461770129885 L 526.7887091367071 517.2227922943509 M 524.2955688049616 522.2426562220847 L 525.2685546875 523.3335527897256 M 525.2685546875 523.3335527897256 L 532.0131053525904 530.078103454816 M 536.9628528208963 535.0278509231218 L 544.7410274139482 542.8060255161738 M 549.6907748822541 547.7557729844797 L 557.4689494753061 555.5339475775316 M 562.418696943612 560.4836950458375 L 570.1968715366639 568.2618696388895 M 575.1466190049698 573.2116171071954 L 582.9247935980218 580.9897917002473 M 587.8745410663277 585.9395391685532 L 595.6527156593796 593.7177137616052 M 600.6024631276855 598.667461229911 L 608.3806377207375 606.445635822963 M 613.3303851890433 611.3953832912689 L 621.1085597820953 619.1735578843209 M 626.0583072504012 624.1233053526267 L 633.8364818434532 631.9014799456787 M 638.786229311759 636.8512274139846 L 646.564403904811 644.6294020070366 M 651.5141513731169 649.5791494753424 L 659.2923259661688 657.3573240683944 M 664.2420734344747 662.3070715367003 L 672.0202480275268 670.0852461297522 M 676.9699954958327 675.0349935980581 L 684.7481700888846 682.8131681911101 M 689.6979175571905 687.762915659416 L 697.4760921502425 695.5410902524679 M 702.4258396185484 700.4908377207738 L 710.2040142116003 708.2690123138258 M 715.1537616799062 713.2187597821317 L 722.9319362729582 720.9969343751836 M 727.881683741264 725.9466818434895 L 735.659858334316 733.7248564365415 M 740.6096058026219 738.6746039048473 L 748.3877803956739 746.4527784978993 M 753.3375278639797 751.4025259662052 L 761.1157024570318 759.1807005592572 M 766.0654499253377 764.130448027563 L 773.8436245183897 771.908622620615 M 778.7933719866955 776.8583700889209 L 786.5715465797475 784.6365446819729 M 791.5212940480534 789.5862921502787 L 799.2994686411055 797.3644667433307 M 804.2492161094113 802.3142142116366 L 812.0273907024633 810.0923888046885 M 816.9771381707692 815.0421362729944 L 824.7553127638212 822.8203108660464 M 829.705060232127 827.7700583343523 L 837.483234825179 835.5482329274042 M 842.4329822934849 840.4979803957101 L 850.2111568865369 848.2761549887621 M 855.1609043548427 853.225902457068 L 862.9390789478947 861.0040770501199 M 867.8888264162006 865.9538245184258 L 875.6670010092525 873.7319991114778 M 880.6167484775584 878.6817465797836 L 888.3949230706105 886.4599211728357 M 893.3446705389164 891.4096686411416 L 901.1228451319683 899.1878432341936 M 906.0725926002742 904.1375907024994 L 913.8507671933262 911.9157652955514 M 918.8005146616321 916.8655127638573 L 926.578689254684 924.6436873569093 M 931.5284367229899 929.5934348252151 L 939.3066113160419 937.3716094182671 M 944.2563587843478 942.321356886573 L 952.0345333773998 950.099531479625 M 956.9842808457057 955.0492789479309 L 964.7624554387577 962.8274535409829 M 969.7122029070636 967.7772010092888 L 977.4903775001155 975.5553756023407 M 982.4401249684214 980.5051230706466 L 990.2182995614734 988.2832976636986 M 995.1680470297792 993.2330451320045 L 1002.9462216228312 1001.0112197250564" stroke-linecap="round" stroke-linejoin="round" stroke-miterlimit="10" stroke-width="2.5" stroke-dasharray=""/></g><g><path fill="none" stroke="#2d70b3" class="dcg-svg-curve" paint-order="fill stroke markers" d=" M 38.50864608815817 1005.5 L 46.286312262713196 997.7213170216814 M 51.235736191975484 992.7712460354787 L 59.01340236653051 984.9925630571602 M 63.962826295792794 980.0424920709575 L 71.74049247034782 972.2638090926389 M 76.68991639961011 967.3137381064362 L 84.46758257416514 959.5350551281176 M 89.41700650342743 954.5849841419149 L 97.19467267798245 946.8063011635963 M 102.14409660724475 941.8562301773936 L 109.92176278179977 934.0775471990751 M 114.87118671106207 929.1274762128724 L 122.64885288561709 921.3487932345538 M 127.59827681487938 916.3987222483511 L 135.3759429894344 908.6200392700325 M 140.3253669186967 903.6699682838298 L 148.10303309325172 895.8912853055112 M 153.052457022514 890.9412143193085 L 160.83012319706904 883.16253134099 M 165.77954712633132 878.2124603547873 L 173.55721330088636 870.4337773764687 M 178.50663723014864 865.483706390266 L 186.28430340470368 857.7050234119474 M 191.23372733396596 852.7549524257447 L 199.011393508521 844.9762694474261 M 203.96081743778328 840.0261984612234 L 211.7384836123383 832.2475154829049 M 216.6879075416006 827.2974444967022 L 224.46557371615563 819.5187615183836 M 229.4149976454179 814.5686905321809 L 237.19266381997295 806.7900075538623 M 242.14208774923523 801.8399365676596 L 249.91975392379027 794.061253589341 M 254.86917785305255 789.1111826031383 L 262.6468440276076 781.3324996248198 M 267.5962679568699 776.3824286386171 L 275.3739341314249 768.6037456602985 M 280.3233580606872 763.6536746740958 L 288.1010242352422 755.8749916957772 M 293.05044816450453 750.9249207095745 L 300.82811433905954 743.146237731256 M 305.77753826832185 738.1961667450532 L 313.55520444287686 730.4174837667347 M 318.50462837213917 725.467412780532 L 326.2822945466942 717.6887298022134 M 331.2317184759565 712.7386588160107 L 339.0093846505115 704.9599758376921 M 343.9588085797738 700.0099048514894 L 351.7364747543288 692.2312218731709 M 356.6858986835911 687.2811508869681 L 364.4635648581461 679.5024679086496 M 369.41298878740844 674.5523969224469 L 377.19065496196345 666.7737139441283 M 382.14007889122576 661.8236429579256 L 389.91774506578076 654.044959979607 M 394.8671689950431 649.0948889934043 L 402.6448351695981 641.3162060150858 M 407.5942590988604 636.366135028883 L 415.3719252734154 628.5874520505646 M 420.3213492026777 623.6373810643619 L 428.0990153772327 615.8586980860434 M 433.048439306495 610.9086270998407 L 440.82610548105004 603.1299441215223 M 445.77552941031234 598.1798731353196 L 453.55319558486735 590.4011901570011 M 458.5026195141296 585.4511191707984 L 466.2802856886846 577.67243619248 M 471.2297096179469 572.7223652062772 L 479.00737579250193 564.9436822279587 M 483.95679972176424 559.993611241756 L 491.73446589631925 552.2149282634375 M 496.6838898255815 547.2648572772348 L 504.4615560001365 539.4861742989164 M 509.4109799293988 534.5361033127136 L 517.1886461039538 526.7574203343952 M 522.1380700332161 521.8073493481925 L 522.9556200327709 520.9896924672291 M 522.9556200327709 520.9896924672291 L 520.7428915738872 518.8078896761127 M 520.7428915738872 518.8078896761127 L 515.9796404555257 514.0446385577512 M 511.02989298721985 509.0948910894454 L 503.2517183941678 501.3167164963934 M 498.301970925862 496.36696902808757 L 490.52379633281 488.58879443503554 M 485.57404886450416 483.6390469667297 L 477.79587427145213 475.8608723736777 M 472.8461268031463 470.9111249053719 L 465.0679522100943 463.13295031231985 M 460.1182047417885 458.18320284401403 L 452.34003014873645 450.405028250962 M 447.39028268043063 445.4552807826562 L 439.6121080873786 437.67710618960416 M 434.6623606190728 432.72735872129834 L 426.88418602602076 424.9491841282463 M 421.93443855771494 419.9994366599405 L 414.1562639646629 412.22126206688847 M 409.2065164963571 407.27151459858266 L 401.42834190330507 399.4933400055306 M 396.47859443499925 394.5435925372248 L 388.7004198419472 386.7654179441728 M 383.7506723736414 381.81567047586697 L 375.9724977805894 374.03749588281494 M 371.02275031228356 369.0877484145091 L 363.24457571923153 361.3095738214571 M 358.2948282509257 356.3598263531513 L 350.5166536578737 348.58165176009925 M 345.5669061895679 343.63190429179343 L 337.78873159651585 335.8537296987414 M 332.83898412821003 330.9039822304356 L 325.060809535158 323.12580763738356 M 320.1110620668522 318.17606016907774 L 312.33288747380016 310.3978855760257 M 307.38314000549434 305.4481381077199 L 299.6049654124423 297.66996351466787 M 294.6552179441365 292.72021604636205 L 286.87704335108447 284.94204145331 M 281.92729588277865 279.9922939850042 L 274.1491212897266 272.2141193919522 M 269.1993738214208 267.26437192364637 L 261.4211992283688 259.48619733059434 M 256.47145176006296 254.5364498622885 L 248.69327716701093 246.75827526923646 M 243.7435296987051 241.80852780093062 L 235.96535510565306 234.0303532078786 M 231.01560763734722 229.08060573957275 L 223.2374330442952 221.30243114652072 M 218.28768557598934 216.35268367821487 L 210.50951098293731 208.57450908516284 M 205.55976351463147 203.624761616857 L 197.78158892157944 195.84658702380497 M 192.8318414532736 190.89683955549913 L 185.05366686022157 183.1186649624471 M 180.10391939191572 178.16891749414128 L 172.3257447988637 170.39074290108925 M 167.37599733055785 165.4409954327834 L 159.59782273750582 157.66282083973138 M 154.64807526919998 152.71307337142554 L 146.86990067614795 144.9348987783735 M 141.9201532078421 139.9851513100677 L 134.14197861479008 132.20697671701566 M 129.19223114648423 127.25722924870983 L 121.4140565534322 119.47905465565782 M 116.46430908512636 114.52930718735199 L 108.68613449207433 106.75113259429997 M 103.73638702376849 101.80138512599414 L 95.95821243071646 94.02321053294213 M 91.00846496241061 89.0734630646363 L 83.23029036935858 81.29528847158429 M 78.28054290105274 76.34554100327846 L 70.50236830800071 68.56736641022644 M 65.55262083969487 63.61761894192061 L 57.77444624664283 55.83944434886859 M 52.82469877833699 50.88969688056276 L 45.04652418528495 43.11152228751074 M 40.09677671697911 38.16177481920491 L 32.31860212392707 30.38360022615289 M 27.36885465562123 25.43385275784706 L 19.590680062569195 17.65567816479504 M 14.640932594263354 12.705930696489212 L 6.862758001211319 4.927756103437195 M 1.9130105329054796 -0.021991364868633845 L -3.5649981022259 -5.5" stroke-linecap="round" stroke-linejoin="round" stroke-miterlimit="10" stroke-width="2.5" stroke-dasharray=""/></g><path fill="#2d70b3" stroke="none" class="dcg-svg-region" paint-order="stroke fill markers" d=" M 1003 -3 L 1003 41.01150143105849 L 523.104383528029 520.9071179030291 L 525.2685546875 523.3335527897256 L 1003 1001.0649981022252 L 1003 1003 L 41.008319296410036 1003 L 522.9556200327709 520.9896924672291 L 520.7428915738872 518.8078896761127 L -1.0649981022258999 -3 L 1003 -3" fill-opacity="0.4"/></g><g id="sketch-54e48d0f"><title>Expression 3</title><path fill="#000000" stroke="none" paint-order="stroke fill markers" d="" fill-opacity="0.4"/><g><path fill="none" stroke="#000000" class="dcg-svg-curve" paint-order="fill stroke markers" d=" M -3.5637661282061117 -5.5 L 4.214627797691594 2.27795525402131 M 9.164514841444678 7.2275631429439615 L 16.942908767342384 15.005518396965272 M 21.89279581109547 19.955126285887925 L 29.671189736993178 27.733081539909236 M 34.621076780746264 32.682689428831885 L 42.39947070664397 40.46064468285319 M 47.349357750397054 45.41025257177584 L 55.12775167629476 53.18820782579715 M 60.077638720047844 58.1378157147198 L 67.85603264594555 65.91577096874111 M 72.80591968969863 70.86537885766377 L 80.58431361559633 78.64333411168508 M 85.53420065934941 83.59294200060774 L 93.31259458524711 91.37089725462904 M 98.26248162900019 96.3205051435517 L 106.0408755548979 104.098460397573 M 110.99076259865097 109.04806828649566 L 118.76915652454868 116.82602354051697 M 123.71904356830176 121.77563142943963 L 131.49743749419946 129.55358668346094 M 136.44732453795254 134.5031945723836 L 144.22571846385026 142.2811498264049 M 149.17560550760334 147.23075771532757 L 156.95399943350105 155.0087129693489 M 161.90388647725413 159.95832085827155 L 169.68228040315185 167.73627611229287 M 174.63216744690493 172.68588400121553 L 182.41056137280265 180.46383925523685 M 187.36044841655573 185.4134471441595 L 195.13884234245344 193.19140239818083 M 200.08872938620652 198.14101028710348 L 207.86712331210424 205.9189655411248 M 212.81701035585732 210.86857343004746 L 220.59540428175504 218.64652868406876 M 225.54529132550812 223.5961365729914 L 233.32368525140583 231.3740918270127 M 238.2735722951589 236.32369971593536 L 246.05196622105663 244.10165496995666 M 251.0018532648097 249.0512628588793 L 258.7802471907074 256.8292181129006 M 263.73013423446054 261.77882600182323 L 271.50852816035825 269.55678125584456 M 276.45841520411136 274.5063891447672 L 284.2368091300091 282.2843443987885 M 289.1866961737622 287.23395228771113 L 296.9650900996599 295.01190754173246 M 301.914977143413 299.9615154306551 L 309.69337106931073 307.7394706846764 M 314.64325811306384 312.68907857359903 L 322.42165203896155 320.46703382762036 M 327.37153908271466 325.416641716543 L 335.1499330086124 333.1945969705643 M 340.09982005236543 338.14420485948693 L 347.87821397826315 345.92216011350826 M 352.8281010220162 350.8717680024309 L 360.6064949479139 358.6497232564522 M 365.55638199166697 363.59933114537483 L 373.3347759175647 371.37728639939616 M 378.28466296131774 376.3268942883188 L 386.06305688721545 384.1048495423401 M 391.0129439309685 389.05445743126273 L 398.7913378568662 396.83241268528405 M 403.74122490061933 401.7820205742067 L 411.51961882651705 409.559975828228 M 416.4695058702701 414.50958371715063 L 424.2478997961678 422.28753897117195 M 429.19778683992087 427.23714686009464 L 436.9761807658186 435.01510211411596 M 441.92606780957163 439.9647100030386 L 449.70446173546935 447.7426652570599 M 454.6543487792224 452.69227314598254 L 462.4327427051201 460.47022840000386 M 467.3826297488732 465.41983628892655 L 475.16102367477095 473.19779154294787 M 480.110910718524 478.1473994318705 L 487.8893046444217 485.9253546858918 M 492.83919168817476 490.8749625748145 L 500.6175856140725 498.6529178288358 M 505.56747265782553 503.60252571775845 L 513.3458665837233 511.3804809717798 M 518.2957536274763 516.3300888607024 L 522.9556200327709 520.9896924672291 M 522.9556200327709 520.9896924672291 L 519.8563127025817 524.127147640969 M 514.9206286567271 529.0908727743309 L 507.1424540636751 536.8690473673829 M 502.19270659536926 541.8187948356888 L 494.41453200231723 549.5969694287407 M 489.4647845340114 554.5467168970466 L 481.6866099409594 562.3248914900986 M 476.73686247265357 567.2746389584045 L 468.95868787960154 575.0528135514564 M 464.0089404112957 580.0025610197623 L 456.2307658182437 587.7807356128143 M 451.2810183499379 592.7304830811202 L 443.50284375688585 600.5086576741721 M 438.55309628858004 605.458405142478 L 430.774921695528 613.23657973553 M 425.8251742272222 618.1863272038358 L 418.04699963417016 625.9645017968878 M 413.09725216586435 630.9142492651937 L 405.3190775728123 638.6924238582457 M 400.3693301045065 643.6421713265515 L 392.5911555114545 651.4203459196035 M 387.64140804314866 656.3700933879094 L 379.86323345009663 664.1482679809614 M 374.9134859817908 669.0980154492672 L 367.1353113887388 676.8761900423192 M 362.18556392043297 681.8259375106251 L 354.40738932738094 689.604112103677 M 349.4576418590751 694.5538595719829 L 341.6794672660231 702.3320341650349 M 336.7297197977173 707.2817816333408 L 328.95154520466525 715.0599562263927 M 324.00179773635944 720.0097036946986 L 316.2236231433074 727.7878782877506 M 311.2738756750016 732.7376257560564 L 303.49570108194956 740.5158003491084 M 298.54595361364375 745.4655478174143 L 290.7677790205917 753.2437224104663 M 285.8180315522859 758.1934698787721 L 278.0398569592339 765.9716444718241 M 273.09010949092806 770.92139194013 L 265.31193489787603 778.699566533182 M 260.3621874295702 783.6493140014878 L 252.58401283651818 791.4274885945398 M 247.63426536821234 796.3772360628457 L 239.8560907751603 804.1554106558976 M 234.90634330685447 809.1051581242035 L 227.12816871380244 816.8833327172555 M 222.1784212454966 821.8330801855614 L 214.40024665244457 829.6112547786133 M 209.45049918413872 834.5610022469192 L 201.6723245910867 842.3391768399712 M 196.72257712278085 847.288924308277 L 188.94440252972882 855.067098901329 M 183.99465506142297 860.0168463696349 L 176.21648046837095 867.7950209626869 M 171.2667330000651 872.7447684309927 L 163.48855840701307 880.5229430240447 M 158.53881093870723 885.4726904923506 L 150.7606363456552 893.2508650854026 M 145.81088887734936 898.2006125537084 L 138.03271428429733 905.9787871467604 M 133.08296681599148 910.9285346150663 L 125.30479222293945 918.7067092081182 M 120.35504475463361 923.6564566764241 L 112.57687016158158 931.4346312694761 M 107.62712269327574 936.384378737782 L 99.84894810022371 944.162553330834 M 94.89920063191786 949.1123007991399 L 87.12102603886584 956.8904753921919 M 82.17127857055999 961.8402228604978 L 74.39310397750796 969.6183974535497 M 69.44335650920212 974.5681449218556 L 61.66518191615009 982.3463195149076 M 56.71543444784425 987.2960669832134 L 48.937259854792224 995.0742415762654 M 43.98751238648639 1000.0239890445713 L 38.511501431057695 1005.5" stroke-linecap="round" stroke-linejoin="round" stroke-miterlimit="10" stroke-width="2.5" stroke-dasharray=""/></g><g><path fill="none" stroke="#000000" class="dcg-svg-curve" paint-order="fill stroke markers" d=" M 1005.5 1003.550768533589 L 997.7243584435929 995.770061728531 M 992.7762229076975 990.818702852585 L 985.0005813512904 983.037996047527 M 980.052445815395 978.0866371715811 L 972.2768042589879 970.3059303665231 M 967.3286687230925 965.3545714905771 L 959.5530271666854 957.5738646855191 M 954.60489163079 952.6225058095731 L 946.8292500743829 944.8417990045151 M 941.8811145384875 939.8904401285691 L 934.1054729820804 932.1097333235111 M 929.157337446185 927.1583744475652 L 921.3816958897779 919.3776676425072 M 916.4335603538825 914.4263087665612 L 908.6579187974754 906.6456019615032 M 903.70978326158 901.6942430855572 L 895.9341417051729 893.9135362804992 M 890.9860061692775 888.9621774045532 L 883.2103646128704 881.1814705994952 M 878.262229076975 876.2301117235493 L 870.4865875205679 868.4494049184913 M 865.5384519846725 863.4980460425453 L 857.7628104282654 855.7173392374873 M 852.81467489237 850.7659803615413 L 845.0390333359629 842.9852735564833 M 840.0908978000675 838.0339146805374 L 832.3152562436604 830.2532078754793 M 827.367120707765 825.3018489995334 L 819.5914791513579 817.5211421944754 M 814.6433436154625 812.5697833185294 L 806.8677020590554 804.7890765134714 M 801.91956652316 799.8377176375254 L 794.1439249667529 792.0570108324674 M 789.1957894308575 787.1056519565215 L 781.4201478744504 779.3249451514635 M 776.472012338555 774.3735862755175 L 768.6963707821479 766.5928794704595 M 763.7482352462525 761.6415205945135 L 755.9725936898454 753.8608137894555 M 751.02445815395 748.9094549135095 L 743.2488165975429 741.1287481084515 M 738.3006810616475 736.1773892325056 L 730.5250395052404 728.3966824274476 M 725.576903969345 723.4453235515016 L 717.801262412938 715.6646167464436 M 712.8531268770425 710.7132578704976 L 705.0774853206354 702.9325510654396 M 700.12934978474 697.9811921894936 L 692.353708228333 690.2004853844356 M 687.4055726924375 685.2491265084897 L 679.6299311360306 677.4684197034317 M 674.6817956001352 672.5170608274857 L 666.9061540437282 664.7363540224277 M 661.9580185078328 659.7849951464817 L 654.1823769514257 652.0042883414237 M 649.2342414155303 647.0529294654777 L 641.4585998591233 639.2722226604197 M 636.5104643232279 634.3208637844738 L 628.7348227668208 626.5401569794158 M 623.7866872309254 621.5887981034698 L 616.0110456745184 613.8080912984119 M 611.062910138623 608.8567324224659 L 603.287268582216 601.0760256174079 M 598.3391330463206 596.124666741462 L 590.5634914899135 588.3439599364041 M 585.6153559540181 583.3926010604581 L 577.8397143976111 575.6118942554001 M 572.8915788617157 570.6605353794541 L 565.1159373053088 562.8798285743962 M 560.1678017694134 557.9284696984503 L 552.3921602130063 550.1477628933924 M 547.4440246771109 545.1964040174464 L 539.6683831207039 537.4156972123884 M 534.7202475848085 532.4643383364424 L 526.9446060284015 524.6836315313845 M 524.278857195619 519.732644235439 L 532.057031788671 511.954469642387 M 537.0067792569769 507.00472217408117 L 544.7849538500288 499.22654758102914 M 549.7347013183347 494.2768001127233 L 557.5128759113867 486.4986255196713 M 562.4626233796926 481.5488780513655 L 570.2407979727445 473.77070345831345 M 575.1905454410504 468.82095599000763 L 582.9687200341024 461.0427813969556 M 587.9184675024082 456.0930339286498 L 595.6966420954602 448.31485933559776 M 600.6463895637661 443.36511186729194 L 608.4245641568181 435.5869372742399 M 613.3743116251239 430.6371898059341 L 621.1524862181759 422.85901521288207 M 626.1022336864818 417.90926774457625 L 633.8804082795338 410.1310931515242 M 638.8301557478396 405.1813456832184 L 646.6083303408916 397.4031710901664 M 651.5580778091975 392.45342362186057 L 659.3362524022496 384.67524902880854 M 664.2859998705554 379.7255015605027 L 672.0641744636074 371.9473269674507 M 677.0139219319133 366.9975794991449 L 684.7920965249652 359.21940490609285 M 689.7418439932711 354.26965743778703 L 697.5200185863232 346.491482844735 M 702.4697660546291 341.5417353764292 L 710.247940647681 333.76356078337716 M 715.1976881159869 328.81381331507134 L 722.9758627090389 321.0356387220193 M 727.9256101773448 316.0858912537135 L 735.7037847703967 308.30771666066147 M 740.6535322387026 303.35796919235565 L 748.4317068317546 295.5797945993036 M 753.3814543000605 290.6300471309978 L 761.1596288931124 282.8518725379458 M 766.1093763614183 277.90212506963996 L 773.8875509544703 270.12395047658794 M 778.8372984227761 265.1742030082821 L 786.6154730158282 257.3960284152301 M 791.5652204841341 252.44628094692425 L 799.3433950771861 244.66810635387222 M 804.293142545492 239.71835888556637 L 812.0713171385439 231.94018429251435 M 817.0210646068498 226.9904368242085 L 824.7992391999018 219.21226223115647 M 829.7489866682076 214.26251476285063 L 837.5271612612596 206.4843401697986 M 842.4769087295655 201.53459270149276 L 850.2550833226176 193.75641810844073 M 855.2048307909234 188.80667064013488 L 862.9830053839754 181.02849604708285 M 867.9327528522813 176.07874857877704 L 875.7109274453333 168.300573985725 M 880.6606749136391 163.3508265174192 L 888.4388495066911 155.57265192436716 M 893.388596974997 150.62290445606135 L 901.166771568049 142.84472986300932 M 906.1165190363548 137.8949823947035 L 913.8946936294068 130.11680780165148 M 918.8444410977127 125.16706033334565 L 926.6226156907647 117.38888574029363 M 931.5723631590706 112.4391382719878 L 939.3505377521226 104.66096367893579 M 944.3002852204285 99.71121621062996 L 952.0784598134804 91.93304161757794 M 957.0282072817863 86.98329414927211 L 964.8063818748383 79.2051195562201 M 969.7561293431442 74.25537208791427 L 977.5343039361961 66.47719749486225 M 982.484051404502 61.52745002655642 L 990.262225997554 53.7492754335044 M 995.2119734658598 48.799527965198564 L 1002.9901480589119 41.02135337214654" stroke-linecap="round" stroke-linejoin="round" stroke-miterlimit="10" stroke-width="2.5" stroke-dasharray=""/></g></g></g><g id="labels-54e48d0f"/><g id="labels-54e48d0f"/></g></svg>